<?xml version="1.0" ?><svg id="Layer_1" style="enable-background:new 0 0 700 700;" version="1.1" viewBox="0 0 700 700" xml:space="preserve" xmlns="http://www.w3.org/2000/svg" xmlns:xlink="http://www.w3.org/1999/xlink"><style type="text/css">
	.st0{fill:#EFC4AC;stroke:#000000;stroke-width:10;stroke-linecap:round;stroke-linejoin:round;stroke-miterlimit:10;}
	.st1{fill:#F9809A;stroke:#000000;stroke-width:10;stroke-linecap:round;stroke-linejoin:round;stroke-miterlimit:10;}
	.st2{fill:#FFFFFF;stroke:#000000;stroke-width:10;stroke-linecap:round;stroke-linejoin:round;stroke-miterlimit:10;}
	.st3{fill:none;stroke:#000000;stroke-width:10;stroke-linecap:round;stroke-linejoin:round;stroke-miterlimit:10;}
</style><g><path class="st0" d="M541.98,450.96l-15.1-8.95c-8.55-5.07-19.59-2.09-24.44,6.58l-15.03,26.86c-9,16.08-27.35,24.51-45.41,20.86   l-30.02-6.06c-13.65-2.76-27.8,1.29-37.93,10.85l-17.78,16.78c-12.54,11.83-32.9,8.46-40.95-6.79L304,489.64   c-6.26-11.85-21.32-15.79-32.58-8.53l-12.5,8.06c-10.65,6.87-24.56,5.88-34.13-2.43l-32.4-28.14c-8.45-7.33-20.86-7.78-29.81-1.07   c-2.96,2.22-6.54,3.39-10.23,3.33c-6.78-0.11-18.93-0.29-32.26-0.44C161.25,545.97,248.73,605,350,605   c111.38,0,206.02-71.44,240.76-170.97l-21.45,15.63C561.28,455.52,550.53,456.03,541.98,450.96z"/><path class="st1" d="M350,95C209.17,95,95,209.17,95,350c0,39.56,9.01,77.02,25.09,110.44c13.34,0.14,25.48,0.33,32.26,0.44   c3.7,0.06,7.28-1.11,10.23-3.33c8.95-6.71,21.37-6.27,29.81,1.07l32.4,28.14c9.57,8.31,23.48,9.3,34.13,2.43l12.5-8.06   c11.26-7.26,26.32-3.32,32.58,8.53l11.32,21.44c8.05,15.24,28.42,18.62,40.95,6.79l17.78-16.78c10.13-9.56,24.27-13.6,37.93-10.85   l30.02,6.06c18.06,3.65,36.41-4.78,45.41-20.86l15.03-26.86c4.85-8.67,15.9-11.64,24.44-6.58l15.1,8.95   c8.55,5.07,19.3,4.56,27.33-1.3l21.45-15.63C599.95,407.71,605,379.45,605,350C605,209.17,490.83,95,350,95z"/><circle class="st2" cx="352.72" cy="353.35" r="89.38"/><path class="st3" d="M301.37,326.6c9.67-18.55,29.07-31.13,51.32-31.13c22.32,0,41.72,12.58,51.39,31.13"/></g></svg>