<?xml version="1.0" ?><svg id="Icons" viewBox="0 0 24 24" xmlns="http://www.w3.org/2000/svg" xmlns:xlink="http://www.w3.org/1999/xlink"><defs><style>.cls-1{fill:url(#linear-gradient);}.cls-2{fill:url(#linear-gradient-2);}.cls-3{fill:#c6c6c6;}.cls-4{fill:url(#linear-gradient-3);}.cls-5{fill:url(#linear-gradient-4);}</style><linearGradient gradientUnits="userSpaceOnUse" id="linear-gradient" x1="12" x2="12" y1="6.191" y2="23"><stop offset="0" stop-color="#f2f2f2"/><stop offset="1" stop-color="#dbdbdb"/></linearGradient><linearGradient gradientUnits="userSpaceOnUse" id="linear-gradient-2" x1="12" x2="12" y1="3.032" y2="8.079"><stop offset="0" stop-color="#ff4867"/><stop offset="1" stop-color="#e50031"/></linearGradient><linearGradient gradientUnits="userSpaceOnUse" id="linear-gradient-3" x1="6" x2="6" y1="0.16" y2="5.467"><stop offset="0" stop-color="#5d5c66"/><stop offset="1" stop-color="#48474f"/></linearGradient><linearGradient id="linear-gradient-4" x1="18" x2="18" xlink:href="#linear-gradient-3" y1="0.16" y2="5.467"/></defs><rect class="cls-1" height="20" rx="3" width="22" x="1" y="3"/><path class="cls-2" d="M23,6V8H1V6A3,3,0,0,1,4,3H20A3,3,0,0,1,23,6Z"/><path class="cls-3" d="M7,14H5a1,1,0,0,1,0-2H7a1,1,0,0,1,0,2Z"/><path class="cls-3" d="M7,19H5a1,1,0,0,1,0-2H7a1,1,0,0,1,0,2Z"/><path class="cls-3" d="M13,14H11a1,1,0,0,1,0-2h2a1,1,0,0,1,0,2Z"/><path class="cls-3" d="M13,19H11a1,1,0,0,1,0-2h2a1,1,0,0,1,0,2Z"/><path class="cls-3" d="M19,14H17a1,1,0,0,1,0-2h2a1,1,0,0,1,0,2Z"/><path class="cls-3" d="M19,19H17a1,1,0,0,1,0-2h2a1,1,0,0,1,0,2Z"/><path class="cls-4" d="M6,6A1,1,0,0,1,5,5V1A1,1,0,0,1,7,1V5A1,1,0,0,1,6,6Z"/><path class="cls-5" d="M18,6a1,1,0,0,1-1-1V1a1,1,0,0,1,2,0V5A1,1,0,0,1,18,6Z"/></svg>